<?xml version="1.0" encoding="utf-8"?>
<!-- Generator: Adobe Illustrator 19.0.0, SVG Export Plug-In . SVG Version: 6.00 Build 0)  -->
<svg version="1.1" id="Layer_1" xmlns="http://www.w3.org/2000/svg" xmlns:xlink="http://www.w3.org/1999/xlink" x="0px" y="0px"
	 viewBox="94 -94.5 388.5 388.5" style="enable-background:new 94 -94.5 388.5 388.5;" xml:space="preserve">
<style type="text/css">
	.st0{fill:#FFFFFF;}
	.st1{fill:#8F0000;}
</style>
<g>
	<g id="circle">
		<g>
			<g>
				<circle class="st0" cx="285" cy="95.6" r="158.7"/>
			</g>
		</g>
	</g>
	<g id="Layer_1_1_">
		<g>
			<path class="st1" d="M231.2,90.2l28.4-1.2c2,0,2.9-2.7,1.7-4.2l-13.7-14.2c-0.2-0.2-0.7-0.5-1.2-0.7l-25.7-6.1
				c-0.2,0-0.5,0-0.7,0l-31.5,2.2c-2.7,0.2-2.9,4.2-0.2,4.6l9,2c0.2,0,0.5,0,0.5,0.2l32.1,16.9C230.4,90.1,230.7,90.2,231.2,90.2z"
				/>
			<path class="st1" d="M231.9,101.1l-31.3,1.5c-0.2,0-0.7,0-1,0.2c-3.4,1.7-26.2,13-25.4,13.2c0.7,0.2,38.1,50.4,45.7,60.4
				c0.7,1,2.2,1.2,3.2,0.5l20.8-13c0.2,0,0.2-0.2,0.5-0.2l17.8-17.6c0.7-0.7,1-2.2,0.2-3.2l-28.5-41.1
				C233.6,101.2,232.9,101.1,231.9,101.1z"/>
			<path class="st1" d="M306.7,152.9c0,0.7-26.4-1.2-34-1.7c-1.2,0-2.2,0.7-2.4,1.7l-9,28.6c0,0,0,0,0,0.2l-8.8,23
				c-0.5,1.5,0.2,2.9,1.7,3.2l47.9,10c1.2,0.2,2.4-0.5,2.7-1.7l7.6-27.1c0-0.2,0-0.7,0-1C311.8,183.1,306.7,152.1,306.7,152.9z"/>
			<path class="st1" d="M288.6,89.2l-7.8,5.9c-1,0.7-1.2,2.2-0.5,3.2l30.6,46c0.2,0.2,0.5,0.5,0.7,0.7l23.2,12.7
				c0.2,0,0.2,0.2,0.5,0.2l0.5,0.5c2.2,2,5.1-0.7,3.7-3.2l-39.6-59.9c-0.2-0.2-0.2-0.5-0.5-0.7l-7.8-5.6
				C290.6,88.6,289.4,88.6,288.6,89.2z"/>
			<path class="st1" d="M240.5,94.8c-0.2,5.4,1.5,11.7,4.6,18.3c0,0,0,0.2,0.2,0.2l9.5,13.7l0.2,0.2c1,1.2,2,2.2,3.2,3.4
				c16.4,16.4,36.9,22.7,45.7,13.9l2.2-2.2l-1.2-1.7c-1-1.2-2.9-1.5-3.9-0.2c-0.2,0.2-0.5,0.5-0.7,0.7c-1.7,1.7-4.2,2.4-7.6,2.4l0,0
				c-9,0-21.3-6.4-31.3-16.6c-11.5-11.5-16.9-24.2-16.4-32.3c0-1.5-1-2.7-2.4-2.7l0,0C241.7,92.4,240.7,93.4,240.5,94.8z"/>
			<path class="st1" d="M355.6,35c-4.6-4.6-9.3-8.3-14.2-11.2c-0.7-0.5-1.2-1.2-1.2-2V-6c0-3.9-2.4-6.6-4.9-6.8l-9-1
				c0,0-2.2,0-3.4,0.2l-9,1.5c-1.5,0.2-2.9-1-2.9-2.4V-26c0-0.2-1.5-0.7-3.4-0.7s-3.4,0.2-3.4,0.7v13.4c0,1.2-0.7,2.2-2,2.4l-20,3.4
				c-2.4,0.7-5.6,2.4-5.6,10l0.2,48.9c0,0.7-0.2,1.2-0.7,1.7l-19.3,19.1c-1,1-1,2.4,0,3.4l10,10.3l3.7,3.7c0.2,0.2,0.2,0.2,0.5,0.5
				c2,1,3.9,2.2,5.9,3.7l0.2-0.2l11-8.3c0.5-0.5,1-0.5,1.7-0.5c0.5,0,1.2,0.2,1.7,0.5l9.3,6.6c0.5,0.5,1,0.7,1.2,1.5l19.6,29.6
				c0.7,1.2,2.7,1.5,3.7,0.5l44-43.3C378.1,71.9,372,51.7,355.6,35z M340.2,41.3c0-0.7,0.2-1.2,0.7-1.7l1.5-1.5
				c0.7-0.7,2.2-0.7,2.9,0c0.7,0.7,0.7,2.2,0,2.9l-5.1,4.9V41.3z M340.2,52.8l9.3-9c0.7-0.7,2.2-0.7,2.9,0c0.7,0.7,0.7,2.2,0,2.9
				l-12.2,11.7V52.8L340.2,52.8z M340.2,67.2c0-0.7,0.2-1.2,0.7-1.7l14.7-14.2c0.7-0.7,2.2-0.7,2.9,0c0.7,0.7,0.7,2.2,0,2.9
				l-18.3,17.9V67.2z M340.2,80.4c0-0.7,0.2-1.2,0.7-1.7l19.3-18.6c0.7-0.7,2.2-0.7,2.9,0c0.7,0.7,0.7,2.2,0,2.9l-23,22v-4.6H340.2z
				 M293-3.8l11.5-2v1.7c0,0.2,1.5,0.7,3.4,0.7c1.7,0,3.4-0.2,3.4-0.7V-7l14.4-2.4c1.5-0.2,2.7,0.7,2.7,2.2c0,0.5,0,1,0,1.7V15
				c0,1.5-1.5,2.7-2.9,2.4c-6.6-1.2-12,0-15.6,3.4l-17.4,16.9c-1.5,1.5-4.2,0.5-4.2-1.7V2.8C288.6-0.6,290.1-3.3,293-3.8z
				 M276.9,66.8c-0.5,0-1.2-0.2-1.5-0.7c-0.7-0.7-0.7-2.2,0-2.9l39.1-37.9c0.7-0.7,2.2-0.7,2.9,0c0.7,0.7,0.7,2.2,0,2.9l-39.1,37.9
				C277.9,66.6,277.4,66.8,276.9,66.8z M289.4,68.2c-0.5,0.5-1,0.5-1.5,0.5s-1-0.2-1.5-0.7c-0.7-0.7-0.7-2.2,0-2.9l39.1-37.6
				c0.7-0.7,2.2-0.7,2.9,0l0,0v1.7c-0.2,0.7-0.5,1.2-0.7,1.7L289.4,68.2z M298.4,72.4c-0.5,0.5-1,0.5-1.5,0.5s-1.2-0.2-1.5-0.7
				c-0.7-0.7-0.7-2.2,0-2.9l33-32v4.9c0,0.7-0.2,1.2-0.7,1.7L298.4,72.4z M304.8,79.4c-0.5,0-1.2-0.2-1.5-0.7
				c-0.7-0.7-0.7-2.2,0-2.9l25.2-24.4v4.9c0,0.7-0.2,1.2-0.7,1.7l-21.6,20.7C305.7,79.2,305.2,79.4,304.8,79.4z M311.8,85.3
				c-0.5,0-1-0.2-1.5-0.7c-0.7-0.7-0.7-2.2,0-2.9l18.1-17.6v4.9c0,0.7-0.2,1.2-0.7,1.7l-14.4,13.9C312.8,85.2,312.3,85.3,311.8,85.3
				z M318,92.7c-0.5,0-1-0.2-1.5-0.7c-0.7-0.7-0.7-2.2,0-2.9l12-11.5v4.9c0,0.7-0.2,1.2-0.7,1.7l-8.3,8.1
				C318.9,92.4,318.4,92.7,318,92.7z M322.4,101.8c-0.5,0-1-0.2-1.5-0.7c-0.7-0.7-0.7-2.2,0-2.9l10-9.8c0.5-0.5,1-0.7,1.7-0.7h4.9
				l-13.7,13.1C323.6,101.4,323.1,101.8,322.4,101.8z M366.6,73.7l-39.1,37.9c-0.5,0.5-1,0.5-1.5,0.5s-1.2-0.2-1.5-0.7
				c-0.7-0.7-0.7-2.2,0-2.9l39.1-37.9c0.7-0.7,2.2-0.7,2.9,0C367.6,71.4,367.3,72.8,366.6,73.7z"/>
		</g>
	</g>
</g>
</svg>
